<svg width="20" height="20" viewBox="0 0 20 20" fill="none" xmlns="http://www.w3.org/2000/svg">
<path d="M5.19534 17.1876C4.9555 17.1871 4.71991 17.1243 4.51174 17.0051C4.04299 16.7395 3.75159 16.2239 3.75159 15.6641V4.33601C3.75159 3.77468 4.04299 3.26062 4.51174 2.99499C4.72487 2.8725 4.96698 2.80952 5.21278 2.81261C5.45858 2.8157 5.69903 2.88476 5.90901 3.01257L15.5906 8.80788C15.7924 8.9344 15.9588 9.11009 16.0741 9.31848C16.1894 9.52687 16.2498 9.76113 16.2498 9.99929C16.2498 10.2374 16.1894 10.4717 16.0741 10.6801C15.9588 10.8885 15.7924 11.0642 15.5906 11.1907L5.90745 16.9876C5.69256 17.1175 5.44644 17.1866 5.19534 17.1876V17.1876Z" fill="white"/>
</svg>
